:SAMPLES-PER-SECOND 30
:FULLY-SPECIFIED
:DEGREES
404
root  12.4626 38.8089 -2.31732 43.7199 -76.7535 -46.0269
RightUpLeg  -9.95845 3.18788 15.4656
RightLeg  19.1498 -5.3709 -2.03369
RightFoot  -6.49414 -0.196677 3.60092
RightToes  -5.28226e-011 1.30204e-014 -6.03759e-014
Spine  12.65 2.24434 -4.49782
Spine1  4.38125 -1.65244 16.4446
HEad  -24.0025 -2.48629 -0.727599
LeftShoulder1  2.30897 -8.69475 -11.8
LeftArm  -23.5882 -12.1595 -72.3347
LeftForeArm  -68.636 3.89608 -4.18832
LeftHand  -0.214754 3.31187 11.4754
RightShoulder  2.13736 5.22652 17.9542
RightArm  -26.2057 15.1171 64.1012
RightForeArm  -60.2268 -4.28533 2.31349
RightHand  0.154753 -0.399578 3.67921
LeftUpLeg  -25.2808 -6.38412 11.7273
LeftLeg  50.5533 8.36352 11.1684
LeftFoot  -7.20243 0.24576 -5.45666
LeftToes  -2.42178e-010 -1.66495e-011 -2.88221e-011
405
root  12.365 38.6087 -2.59019 50.8256 -73.9201 -52.7099
RightUpLeg  -10.0625 3.60983 18.7079
RightLeg  17.897 -6.26235 -1.33506
RightFoot  -6.67692 -0.280484 5.80194
RightToes  -5.28226e-011 1.30204e-014 -6.03759e-014
Spine  11.7503 2.94827 -6.06653
Spine1  3.53458 -2.04071 21.8644
HEad  -24.1892 -2.33829 0.560561
LeftShoulder1  2.22245 -9.05349 -10.4342
LeftArm  -22.1295 -12.4489 -75.4302
LeftForeArm  -65.3784 4.55975 -5.02285
LeftHand  -0.185959 3.77275 12.4353
RightShoulder  2.1393 5.20692 18.0386
RightArm  -25.6767 15.3942 64.2226
RightForeArm  -58.3519 -4.44657 2.7534
RightHand  0.148895 -0.75679 3.86823
LeftUpLeg  -26.0098 -11.2126 15.6068
LeftLeg  51.4389 9.85802 13.4168
LeftFoot  -5.35576 0.37481 -6.5512
LeftToes  -2.42178e-010 -1.66495e-011 -2.88221e-011
406
root  12.3354 38.3332 -2.74535 56.1067 -71.9258 -57.6528
RightUpLeg  -10.9442 3.00541 20.9868
RightLeg  18.4742 -5.70751 -0.385473
RightFoot  -7.61267 -0.290399 7.29965
RightToes  -5.28226e-011 1.30204e-014 -6.03759e-014
Spine  10.8656 3.59057 -6.96266
Spine1  3.39836 -2.09436 25.3337
HEad  -25.0981 -2.21512 2.32908
LeftShoulder1  2.17161 -9.44273 -9.40223
LeftArm  -20.0252 -13.642 -77.8709
LeftForeArm  -61.6488 4.89201 -6.17088
LeftHand  -0.151847 4.28429 13.4165
RightShoulder  2.16913 5.2468 18.2866
RightArm  -24.9778 16.3334 64.3298
RightForeArm  -57.2751 -4.56816 3.1768
RightHand  0.113228 -1.30365 3.45058
LeftUpLeg  -25.9151 -15.6315 18.2171
LeftLeg  51.923 12.4284 16.8499
LeftFoot  -6.58484 0.422404 -9.34865
LeftToes  -2.42178e-010 -1.66495e-011 -2.88221e-011
407
root  12.3827 38.0837 -2.79703 60.3176 -70.9663 -61.9544
RightUpLeg  -11.6885 0.415465 22.6751
RightLeg  19.8466 -2.77127 0.447442
RightFoot  -8.64989 -0.234619 7.45255
RightToes  -5.28226e-011 1.30204e-014 -6.03759e-014
Spine  10.1672 4.20798 -7.49036
Spine1  4.51303 -2.01148 26.8396
HEad  -27.1468 -2.04179 4.14912
LeftShoulder1  2.14525 -9.76166 -8.72922
LeftArm  -17.79 -15.6824 -79.8475
LeftForeArm  -58.3117 5.22101 -7.22689
LeftHand  -0.0879461 4.87043 14.9258
RightShoulder  2.20655 5.35308 18.422
RightArm  -23.9228 18.2928 64.7523
RightForeArm  -56.9834 -4.65924 3.62943
RightHand  0.0489259 -1.94174 2.02909
LeftUpLeg  -24.589 -18.9284 19.2683
LeftLeg  52.0188 16.066 21.2205
LeftFoot  -10.2756 0.167678 -10.8937
LeftToes  -2.42178e-010 -1.66495e-011 -2.88221e-011
408
root  12.4761 37.9348 -2.77021 62.8762 -70.6324 -64.8675
RightUpLeg  -12.0266 -2.77955 23.8459
RightLeg  20.9826 0.725548 0.816576
RightFoot  -9.0419 -0.208205 7.30324
RightToes  -5.28226e-011 1.30204e-014 -6.03759e-014
Spine  9.91075 4.61408 -7.93123
Spine1  6.07175 -2.06394 27.1768
HEad  -29.9825 -1.7783 5.2954
LeftShoulder1  2.12606 -9.94182 -8.32709
LeftArm  -16.1051 -17.8205 -81.6401
LeftForeArm  -55.5992 5.4571 -7.91702
LeftHand  -0.0136195 5.37367 16.4354
RightShoulder  2.21986 5.42319 18.371
RightArm  -22.7671 20.7243 65.6256
RightForeArm  -56.0188 -4.78386 4.10399
RightHand  -0.0188889 -2.42983 -0.216712
LeftUpLeg  -22.5783 -20.5082 19.3901
LeftLeg  51.0791 19.0534 23.8307
LeftFoot  -14.0934 -0.178382 -10.9205
LeftToes  -2.42178e-010 -1.66495e-011 -2.88221e-011
409
root  12.5761 37.9285 -2.68807 62.4023 -70.4566 -64.592
RightUpLeg  -12.1334 -4.78801 23.9795
RightLeg  21.2162 2.29334 0.97012
RightFoot  -8.69846 -0.233885 7.54907
RightToes  -5.28226e-011 1.30204e-014 -6.03759e-014
Spine  10.2616 4.56191 -8.46877
Spine1  6.92223 -2.46076 27.2701
HEad  -32.9347 -1.43331 5.49506
LeftShoulder1  2.13078 -10.0214 -8.26198
LeftArm  -14.5331 -19.3862 -83.0668
LeftForeArm  -53.4573 5.66035 -8.57563
LeftHand  0.0722452 5.94146 17.5538
RightShoulder  2.21079 5.46675 18.1301
RightArm  -21.7921 22.4762 66.8328
RightForeArm  -52.1607 -5.05652 4.71009
RightHand  -0.0875766 -2.51695 -3.00898
LeftUpLeg  -21.0218 -20.0131 19.3831
LeftLeg  48.6665 19.5003 22.5164
LeftFoot  -16.6385 -0.425517 -11.2971
LeftToes  -2.42178e-010 -1.66495e-011 -2.88221e-011
410
root  12.6578 38.0668 -2.53511 59.0395 -70.6562 -61.1071
RightUpLeg  -12.1499 -6.07066 22.7395
RightLeg  20.7707 2.778 1.17295
RightFoot  -8.45297 -0.273807 8.60068
RightToes  -5.28226e-011 1.30204e-014 -6.03759e-014
Spine  10.9042 4.13498 -9.07176
Spine1  7.02269 -2.99186 26.9431
HEad  -35.6839 -1.14267 5.16725
LeftShoulder1  2.1693 -10.0768 -8.50747
LeftArm  -11.8812 -20.3998 -83.884
LeftForeArm  -51.9418 5.93359 -9.83682
LeftHand  0.237986 6.95528 18.4558
RightShoulder  2.19642 5.59157 17.5912
RightArm  -20.5542 22.9153 68.2445
RightForeArm  -44.8461 -5.54928 5.80801
RightHand  -0.18964 -2.40104 -6.94596
LeftUpLeg  -20.2376 -17.4017 18.8873
LeftLeg  45.332 17.3536 18.2833
LeftFoot  -17.601 -0.554206 -12.0463
LeftToes  -2.42178e-010 -1.66495e-011 -2.88221e-011
411
root  12.7242 38.3242 -2.25974 54.9597 -72.0231 -56.7395
RightUpLeg  -12.1081 -6.72311 19.9218
RightLeg  20.4562 3.89984 1.55917
RightFoot  -8.64332 -0.334899 11.7142
RightToes  -5.28226e-011 1.30204e-014 -6.03759e-014
Spine  11.309 3.75578 -9.27518
Spine1  7.03645 -2.93374 24.8173
HEad  -37.9858 -1.22697 4.78429
LeftShoulder1  2.1911 -10.1011 -8.65469
LeftArm  -7.96089 -21.0994 -84.3857
LeftForeArm  -49.65 6.42109 -11.7371
LeftHand  0.448253 8.12678 19.4367
RightShoulder  2.16313 5.75441 16.7342
RightArm  -18.288 22.3578 69.887
RightForeArm  -35.9549 -6.21722 7.60261
RightHand  -0.296625 -2.68422 -12.4414
LeftUpLeg  -19.2692 -13.212 16.8096
LeftLeg  41.659 14.601 13.8794
LeftFoot  -17.1499 -0.48006 -11.4205
LeftToes  -2.42178e-010 -1.66495e-011 -2.88221e-011
